<?xml version="1.0" encoding="utf-8"?>
<!-- Generator: Adobe Illustrator 25.2.1, SVG Export Plug-In . SVG Version: 6.00 Build 0)  -->
<svg version="1.1" id="Capa_1" xmlns="http://www.w3.org/2000/svg" xmlns:xlink="http://www.w3.org/1999/xlink" x="0px" y="0px"
	 viewBox="0 0 128 128" style="enable-background:new 0 0 128 128;" xml:space="preserve">
<style type="text/css">
	.st0{fill:#28357D;}
</style>
<g>
	<path class="st0" d="M73.1,58.3c3-2.6,4.8-6.3,4.8-10.5c0-7.7-6.3-13.9-14-13.9s-14,6.2-14,13.9c0,4.2,1.9,8,4.8,10.5
		C48.4,60.6,43,66.6,43,77.9v4.9c0,3.8,2.4,7.3,6,8.7c3.2,1.2,8.4,2.6,15,2.6c6.6,0,11.8-1.4,15-2.6c3.6-1.4,6-4.8,6-8.7v-4.9
		C85,66.6,79.6,60.6,73.1,58.3z M64,38.5c5.1,0,9.3,4.2,9.3,9.3S69.1,57,64,57c-5.1,0-9.3-4.2-9.3-9.3S58.9,38.5,64,38.5z
		 M80.3,82.8c0,1.9-1.2,3.6-3,4.3c-2.8,1.1-7.4,2.3-13.3,2.3c-5.9,0-10.5-1.3-13.3-2.3c-1.8-0.7-3-2.4-3-4.3v-4.9
		c0-14.6,10.1-16.2,14.4-16.2h3.7c4.3,0,14.4,1.6,14.4,16.2V82.8z"/>
	<path class="st0" d="M64,18.7C39,18.7,18.7,39,18.7,64S39,109.3,64,109.3S109.3,89,109.3,64S89,18.7,64,18.7z M64,105.1
		c-22.6,0-41.1-18.4-41.1-41.1S41.4,22.9,64,22.9s41.1,18.4,41.1,41.1S86.6,105.1,64,105.1z"/>
</g>
</svg>
