<?xml version="1.0" encoding="utf-8"?>
<!-- Generator: Adobe Illustrator 25.2.1, SVG Export Plug-In . SVG Version: 6.00 Build 0)  -->
<svg version="1.1" id="Capa_1" xmlns="http://www.w3.org/2000/svg" xmlns:xlink="http://www.w3.org/1999/xlink" x="0px" y="0px"
	 viewBox="0 0 128 128" style="enable-background:new 0 0 128 128;" xml:space="preserve">
<style type="text/css">
	.st0{fill:#28357D;}
</style>
<g>
	<path class="st0" d="M87.1,67.7V27.6c0-5.7-4.7-10.4-10.4-10.4H23.9c-5.7,0-10.4,4.7-10.4,10.4v40.1c0,5.7,4.7,10.4,10.4,10.4h2.2
		v11.8c0,1.7,1,3.2,2.6,3.8c0.5,0.2,1,0.3,1.5,0.3c1.1,0,2.1-0.4,2.9-1.2l14.1-14.6h29.4C82.4,78.1,87.1,73.4,87.1,67.7z M46.5,74.1
		c-0.5,0-1.1,0.2-1.4,0.6L30.3,90l1.4,1.4l-1.7-1.5V76.1c0-1.1-0.9-2-2-2h-4.2c-3.6,0-6.5-2.9-6.5-6.5V27.6c0-3.6,2.9-6.5,6.5-6.5
		h52.8c3.6,0,6.5,2.9,6.5,6.5v40.1c0,3.6-2.9,6.5-6.5,6.5H46.5z"/>
	<path class="st0" d="M104.1,38.2H92c-1.1,0-2,0.9-2,2c0,1.1,0.9,2,2,2h12.1c3.6,0,6.5,2.9,6.5,6.5v35.9c0,3.6-2.9,6.5-6.5,6.5H102
		c-1.1,0-2,0.9-2,2v13.8l-0.2,0.1L85.1,91.6c-0.4-0.4-0.9-0.6-1.4-0.6H64c-3.6,0-6.5-2.9-6.5-6.5v-1.8c0-1.1-0.9-2-2-2
		c-1.1,0-2,0.9-2,2v1.8C53.6,90.3,58.3,95,64,95h18.8l14.1,14.6c0.8,0.8,1.8,1.3,2.9,1.3c0.5,0,1-0.1,1.5-0.3
		c1.6-0.6,2.6-2.1,2.6-3.8V95h0.1c5.7,0,10.4-4.7,10.4-10.4V48.7C114.5,42.9,109.9,38.2,104.1,38.2z"/>
	<polygon class="st0" points="34.6,46.7 30.1,46.7 30.1,38.1 26.1,38.1 26.1,59.2 30.1,59.2 30.1,50.6 34.6,50.6 34.6,59.2 
		38.5,59.2 38.5,38.1 34.6,38.1 	"/>
	<path class="st0" d="M40.9,40.2v16.9c0,1.1,0.9,2,2,2h8.4v-4h-6.5v-4.5h6.5v-4h-6.5v-4.5h6.5v-4h-8.4
		C41.8,38.2,40.9,39.1,40.9,40.2z"/>
	<path class="st0" d="M57.5,38.1h-4v19c0,1.1,0.9,2,2,2h6.3v-4h-4.4V38.1z"/>
	<path class="st0" d="M72.4,38.2h-6.3c-1.1,0-2,0.9-2,2v8.4v10.6h4v-8.6h4.4c2.3,0,4.1-1.8,4.1-4.1v-4.2
		C76.5,40.1,74.7,38.2,72.4,38.2z M72.6,46.6c0,0.1-0.1,0.1-0.1,0.1h-4.4v-4.5h4.4c0.1,0,0.1,0.1,0.1,0.1V46.6z"/>
</g>
</svg>
