<?xml version="1.0" encoding="utf-8"?>
<!-- Generator: Adobe Illustrator 25.2.1, SVG Export Plug-In . SVG Version: 6.00 Build 0)  -->
<svg version="1.1" id="Capa_1" xmlns="http://www.w3.org/2000/svg" xmlns:xlink="http://www.w3.org/1999/xlink" x="0px" y="0px"
	 viewBox="0 0 128 128" style="enable-background:new 0 0 128 128;" xml:space="preserve">
<style type="text/css">
	.st0{fill:#28357D;}
</style>
<g>
	<path class="st0" d="M60.5,75.9L39.3,99.7c-1.2,1.3-2.8,2-4.6,2.1c0,0,0,0,0,0c-1.8,0-3.4-0.7-4.5-2l-2.3-2.6
		c-1.1-1.2-1.7-2.8-1.6-4.4c0.1-1.6,0.8-3.2,2-4.2L52,67.4c1-0.9,1.1-2.4,0.2-3.4c-0.9-1-2.4-1.1-3.4-0.2L25.2,84.9
		c-2.2,1.9-3.5,4.6-3.6,7.5c-0.2,2.9,0.8,5.7,2.8,7.9l2.3,2.6c2.1,2.3,5,3.6,8.1,3.6c0,0,0,0,0,0c3.1,0,6-1.3,8.1-3.6L64.1,79
		c0.9-1,0.8-2.5-0.2-3.4C62.9,74.8,61.4,74.9,60.5,75.9z"/>
	<path class="st0" d="M66.7,54.3l12-10.7c0.3-0.2,0.6-0.5,0.8-0.9c0.3-0.6,0.4-1.2,0.2-1.8c-0.3-1.1-0.5-2.2-0.5-3.4
		c0-6.3,5.4-11.5,11.7-11.2l-6.9,7c-0.9,0.9-0.9,2.4,0,3.4l7.4,7.3c0.9,0.9,2.4,0.9,3.4,0l6.9-6.8c0,0.1,0,0.2,0,0.2
		c0,6.2-5,11.2-11.2,11.2c-1.1,0-2.2-0.2-3.3-0.5c-0.9-0.3-1.9,0-2.5,0.7L74.5,60.2c-0.9,1-0.8,2.5,0.2,3.4c0.5,0.4,1,0.6,1.6,0.6
		c0.7,0,1.3-0.3,1.8-0.8l9.2-10.3c1,0.2,2.1,0.3,3.2,0.3c8.8,0,15.9-7.2,15.9-15.9c0-2-0.4-4-1.1-5.9c-0.3-0.7-0.9-1.3-1.7-1.5
		c-0.8-0.2-1.6,0.1-2.2,0.6L93,39l-4-4l8.3-8.4c0.6-0.6,0.7-1.4,0.6-2.2c-0.2-0.8-0.8-1.5-1.5-1.7c-1.9-0.8-3.9-1.1-5.9-1.1
		c-8.8,0-15.9,7.2-15.9,15.9c0,1.1,0.1,2.2,0.3,3.2l-11.2,10c-1,0.9-1.1,2.4-0.2,3.4C64.2,55,65.7,55.1,66.7,54.3z"/>
	<path class="st0" d="M30.5,91.9c0,3.1,2.5,5.5,5.5,5.5c3.1,0,5.5-2.5,5.5-5.5c0-3.1-2.5-5.5-5.5-5.5C33,86.4,30.5,88.9,30.5,91.9z
		 M37.8,91.9c0,1-0.8,1.8-1.8,1.8c-1,0-1.8-0.8-1.8-1.8c0-1,0.8-1.8,1.8-1.8C37,90.2,37.8,90.9,37.8,91.9z"/>
	<path class="st0" d="M103.9,85.4l-20-20.3c-0.5-0.5-1.3-0.8-2-0.7l-8.2,1.1L43.9,35.8l-3-7.3c-0.2-0.5-0.6-1-1.1-1.2l-10.9-5.5
		c-0.9-0.5-2.1-0.3-2.8,0.5l-3.9,4.1c-0.7,0.7-0.9,1.8-0.4,2.7l5.1,10.8c0.3,0.5,0.7,1,1.2,1.2l7.1,2.9l30.4,29.8L65,81.6
		c-0.1,0.7,0.2,1.4,0.7,1.9l19.9,20.1c1.7,1.7,4,2.7,6.4,2.7c0,0,0,0,0,0c2.4,0,4.7-0.9,6.4-2.6l5.5-5.5
		C107.3,94.6,107.4,88.9,103.9,85.4z M68.1,69.4L38.2,40.2c-0.2-0.2-0.5-0.4-0.8-0.5l-6.7-2.7l-4-8.5l1.6-1.6l8.6,4.3l2.9,6.9
		c0.1,0.3,0.3,0.6,0.5,0.8L69.4,68L68.1,69.4z M100.5,94.8l-5.5,5.5c-0.8,0.8-1.9,1.2-3,1.2c0,0,0,0,0,0c-1.1,0-2.2-0.5-3-1.3
		L69.8,80.9l0.6-7.1l3.5-3.5l7.4-1l19.2,19.4C102.1,90.4,102.1,93.1,100.5,94.8z"/>
	<path class="st0" d="M77.3,78.1c-0.9-0.9-2.4-0.9-3.4,0C73,79,73,80.5,74,81.5l17.9,17.7c0.5,0.5,1.1,0.7,1.7,0.7
		c0.6,0,1.2-0.2,1.7-0.7c0.9-0.9,0.9-2.4,0-3.4L77.3,78.1z"/>
	<path class="st0" d="M81.8,73.6c-0.9-0.9-2.4-0.9-3.4,0c-0.9,0.9-0.9,2.4,0,3.4l17.9,17.7c0.5,0.5,1.1,0.7,1.7,0.7
		c0.6,0,1.2-0.2,1.7-0.7c0.9-0.9,0.9-2.4,0-3.4L81.8,73.6z"/>
</g>
</svg>
