<?xml version="1.0" encoding="utf-8"?>
<!-- Generator: Adobe Illustrator 25.2.1, SVG Export Plug-In . SVG Version: 6.00 Build 0)  -->
<svg version="1.1" id="Capa_1" xmlns="http://www.w3.org/2000/svg" xmlns:xlink="http://www.w3.org/1999/xlink" x="0px" y="0px"
	 viewBox="0 0 128 128" style="enable-background:new 0 0 128 128;" xml:space="preserve">
<style type="text/css">
	.st0{fill:#28357D;}
</style>
<g>
	<path class="st0" d="M83.3,81.9c-1.1,0-2.1,0.9-2.1,2.1v26.8c0,1.1,0.9,2.1,2.1,2.1s2.1-0.9,2.1-2.1V84
		C85.4,82.9,84.5,81.9,83.3,81.9z"/>
	<path class="st0" d="M55.4,87.3c-1.1,0-2.1,0.9-2.1,2.1v21.7c0,1.1,0.9,2.1,2.1,2.1s2.1-0.9,2.1-2.1V89.4
		C57.5,88.2,56.5,87.3,55.4,87.3z"/>
	<path class="st0" d="M64.9,50.6c2.7-2.5,4.4-6.1,4.4-10.1c0-7.6-6.2-13.8-13.9-13.8S41.5,33,41.5,40.6c0,3.9,1.7,7.5,4.3,10
		c-8.8,1.5-13.4,8.1-13.4,19.3V81c0,4.8,3.9,8.8,8.7,8.9v21.2c0,1.1,0.9,2.1,2.1,2.1s2.1-0.9,2.1-2.1V67.6c0-1.1-0.9-2.1-2.1-2.1
		s-2.1,0.9-2.1,2.1v18.2c-2.5-0.2-4.6-2.2-4.6-4.8V69.9c0-13.9,7.7-15.5,13.5-15.5h5.2h5.2C66.3,54.4,74,56,74,69.9V81
		c0,2.5-2,4.6-4.5,4.8V67.6c0-1.1-0.9-2.1-2.1-2.1s-2.1,0.9-2.1,2.1v43.6c0,1.1,0.9,2.1,2.1,2.1s2.1-0.9,2.1-2.1V89.9
		c4.8-0.2,8.7-4.1,8.7-8.9V69.9C78.1,58.8,73.6,52.2,64.9,50.6z M55.4,30.9c5.4,0,9.7,4.3,9.7,9.7c0,5.3-4.4,9.7-9.7,9.7
		c-5.4,0-9.7-4.3-9.7-9.7C45.7,35.2,50,30.9,55.4,30.9z"/>
	<path class="st0" d="M93,38.5c2.6-2.5,4.3-6,4.3-9.9c0-7.6-6.2-13.8-13.9-13.8S69.5,21,69.5,28.6c0,7.6,6.1,13.7,13.7,13.8
		c0,0,0,0,0,0h5.9c10.6,0,15.5,5.6,15.5,17.8v12.6c0,3.1-2.5,5.6-5.6,5.7V57.6c0-1.1-0.9-2.1-2.1-2.1s-2.1,0.9-2.1,2.1v53.6
		c0,1.1,0.9,2.1,2.1,2.1s2.1-0.9,2.1-2.1V82.6c5.4-0.1,9.8-4.4,9.8-9.8V60.2C108.8,47.4,103.3,40,93,38.5z M73.6,28.6
		c0-5.3,4.4-9.7,9.7-9.7s9.7,4.3,9.7,9.7s-4.4,9.7-9.7,9.7S73.6,33.9,73.6,28.6z"/>
	<path class="st0" d="M31.8,19.8c-0.8-0.8-2.1-0.8-2.9,0l-9.1,9.1c-0.8,0.8-0.8,2.1,0,2.9l9.1,9.1c0.4,0.4,0.9,0.6,1.5,0.6
		c0.5,0,1.1-0.2,1.5-0.6c0.8-0.8,0.8-2.1,0-2.9l-7.6-7.6l7.6-7.6C32.6,22,32.6,20.6,31.8,19.8z"/>
</g>
</svg>
