<?xml version="1.0" encoding="utf-8"?>
<!-- Generator: Adobe Illustrator 25.2.1, SVG Export Plug-In . SVG Version: 6.00 Build 0)  -->
<svg version="1.1" id="Capa_1" xmlns="http://www.w3.org/2000/svg" xmlns:xlink="http://www.w3.org/1999/xlink" x="0px" y="0px"
	 viewBox="0 0 128 128" style="enable-background:new 0 0 128 128;" xml:space="preserve">
<style type="text/css">
	.st0{fill:#28357D;}
</style>
<g>
	<path class="st0" d="M79.5,76.5c-1.1,0-2.1,0.9-2.1,2.1v32.6c0,1.1,0.9,2.1,2.1,2.1s2.1-0.9,2.1-2.1V78.5
		C81.6,77.4,80.7,76.5,79.5,76.5z"/>
	<path class="st0" d="M62.1,28.6c0-7.6-6.2-13.8-13.9-13.8S34.4,21,34.4,28.6c0,3.9,1.6,7.4,4.3,9.9C28.3,40,22.8,47.4,22.8,60.2
		v12.6c0,5.4,4.4,9.8,9.8,9.8v28.6c0,1.1,0.9,2.1,2.1,2.1s2.1-0.9,2.1-2.1V57.6c0-1.1-0.9-2.1-2.1-2.1s-2.1,0.9-2.1,2.1v20.8
		c-3.1-0.1-5.6-2.6-5.6-5.7V60.2c0-12.1,4.9-17.8,15.5-17.8h5.9c0,0,0,0,0,0C56,42.3,62.1,36.2,62.1,28.6z M48.2,18.9
		c5.4,0,9.7,4.3,9.7,9.7s-4.4,9.7-9.7,9.7s-9.7-4.3-9.7-9.7S42.9,18.9,48.2,18.9z"/>
	<path class="st0" d="M89.2,38.5c2.6-2.5,4.2-6,4.2-9.9c0-7.6-6.2-13.8-13.9-13.8S65.7,21,65.7,28.6c0,3.9,1.6,7.4,4.3,9.9
		C59.6,40,54.1,47.4,54.1,60.2v12.6c0,5.4,4.4,9.8,9.8,9.8v28.6c0,1.1,0.9,2.1,2.1,2.1s2.1-0.9,2.1-2.1V57.6c0-1.1-0.9-2.1-2.1-2.1
		s-2.1,0.9-2.1,2.1v20.8c-3.1-0.1-5.6-2.6-5.6-5.7V60.2c0-12.1,4.9-17.8,15.5-17.8h5.9h5.9c10.6,0,15.5,5.6,15.5,17.8v12.6
		c0,3.1-2.5,5.7-5.7,5.7V57.6c0-1.1-0.9-2.1-2.1-2.1s-2.1,0.9-2.1,2.1v53.6c0,1.1,0.9,2.1,2.1,2.1s2.1-0.9,2.1-2.1V82.6
		c5.4,0,9.8-4.4,9.8-9.8V60.2C105.2,47.3,99.7,39.9,89.2,38.5z M79.5,18.9c5.4,0,9.7,4.3,9.7,9.7s-4.4,9.7-9.7,9.7s-9.7-4.3-9.7-9.7
		S74.2,18.9,79.5,18.9z"/>
</g>
</svg>
