<?xml version="1.0" encoding="utf-8"?>
<!-- Generator: Adobe Illustrator 25.2.1, SVG Export Plug-In . SVG Version: 6.00 Build 0)  -->
<svg version="1.1" id="Capa_1" xmlns="http://www.w3.org/2000/svg" xmlns:xlink="http://www.w3.org/1999/xlink" x="0px" y="0px"
	 viewBox="0 0 128 128" style="enable-background:new 0 0 128 128;" xml:space="preserve">
<style type="text/css">
	.st0{fill:#28357D;}
</style>
<g>
	<g>
		<path class="st0" d="M89.3,104.3H38.7c-5.1,0-9.3-4.2-9.3-9.3v-69c0-5.1,4.2-9.3,9.3-9.3h50.6c5.1,0,9.3,4.2,9.3,9.3v69
			C98.6,100.2,94.4,104.3,89.3,104.3z M38.7,21.5c-2.5,0-4.5,2-4.5,4.5v69c0,2.5,2,4.5,4.5,4.5h50.6c2.5,0,4.5-2,4.5-4.5v-69
			c0-2.5-2-4.5-4.5-4.5H38.7z"/>
	</g>
	<g>
		<path class="st0" d="M91.6,111.2H80.1c-2.6,0-4.7-2.1-4.7-4.7v-4.6c0-1.3,1.1-2.4,2.4-2.4s2.4,1.1,2.4,2.4v4.6l11.4-0.1l-0.1-4.5
			c0-1.3,1.1-2.4,2.4-2.4c1.3,0,2.4,1.1,2.4,2.4v4.6C96.3,109.1,94.2,111.2,91.6,111.2z"/>
	</g>
	<g>
		<path class="st0" d="M47.9,111.2H36.4c-2.6,0-4.7-2.1-4.7-4.7v-4.6c0-1.3,1.1-2.4,2.4-2.4c1.3,0,2.4,1.1,2.4,2.4v4.6l11.4-0.1
			l-0.1-4.5c0-1.3,1.1-2.4,2.4-2.4s2.4,1.1,2.4,2.4v4.6C52.6,109.1,50.5,111.2,47.9,111.2z"/>
	</g>
	<g>
		<path class="st0" d="M96.2,74.4H31.8c-1.3,0-2.4-1.1-2.4-2.4s1.1-2.4,2.4-2.4h64.4c1.3,0,2.4,1.1,2.4,2.4S97.5,74.4,96.2,74.4z"/>
	</g>
	<g>
		<path class="st0" d="M50.2,85.9H38.7c-1.3,0-2.4-1.1-2.4-2.4c0-1.3,1.1-2.4,2.4-2.4h11.5c1.3,0,2.4,1.1,2.4,2.4
			C52.6,84.9,51.5,85.9,50.2,85.9z"/>
	</g>
	<g>
		<path class="st0" d="M89.3,85.9H77.8c-1.3,0-2.4-1.1-2.4-2.4c0-1.3,1.1-2.4,2.4-2.4h11.5c1.3,0,2.4,1.1,2.4,2.4
			C91.7,84.9,90.6,85.9,89.3,85.9z"/>
	</g>
	<g>
		<path class="st0" d="M96.2,35.3H31.8c-1.3,0-2.4-1.1-2.4-2.4c0-1.3,1.1-2.4,2.4-2.4h64.4c1.3,0,2.4,1.1,2.4,2.4
			C98.6,34.3,97.5,35.3,96.2,35.3z"/>
	</g>
	<g>
		<path class="st0" d="M22.6,58.3c-1.3,0-2.4-1.1-2.4-2.4V42.2c0-0.8,0.4-1.5,1-1.9l9.2-6.9c1.1-0.8,2.5-0.6,3.3,0.5
			c0.8,1.1,0.6,2.5-0.5,3.3L25,43.3V56C25,57.3,23.9,58.3,22.6,58.3z"/>
	</g>
	<g>
		<path class="st0" d="M105.4,58.3c-1.3,0-2.4-1.1-2.4-2.4V43.3l-8.2-6.2c-1.1-0.8-1.3-2.3-0.5-3.3c0.8-1.1,2.3-1.3,3.3-0.5l9.2,6.9
			c0.6,0.5,1,1.2,1,1.9V56C107.8,57.3,106.7,58.3,105.4,58.3z"/>
	</g>
	<g>
		<path class="st0" d="M64,74.4c-1.3,0-2.4-1.1-2.4-2.4V33c0-1.3,1.1-2.4,2.4-2.4s2.4,1.1,2.4,2.4V72C66.4,73.4,65.3,74.4,64,74.4z"
			/>
	</g>
</g>
</svg>
