<?xml version="1.0" encoding="utf-8"?>
<!-- Generator: Adobe Illustrator 25.2.1, SVG Export Plug-In . SVG Version: 6.00 Build 0)  -->
<svg version="1.1" id="Capa_1" xmlns="http://www.w3.org/2000/svg" xmlns:xlink="http://www.w3.org/1999/xlink" x="0px" y="0px"
	 viewBox="0 0 128 128" style="enable-background:new 0 0 128 128;" xml:space="preserve">
<style type="text/css">
	.st0{fill:#28357D;}
</style>
<g>
	<path class="st0" d="M59.2,40.8c-9.6,0-17.4,7.8-17.4,17.4s7.8,17.4,17.4,17.4c9.6,0,17.4-7.8,17.4-17.4S68.8,40.8,59.2,40.8z
		 M72.3,56.2h-5.4c-0.3-3.8-1.3-7.3-3-10.3C68.3,47.5,71.5,51.4,72.3,56.2z M55.6,56.2c0.3-3.7,1.5-7.3,3.6-10.1
		c2,2.7,3.3,6.2,3.6,10.1H55.6z M62.8,60.3c-0.3,3.8-1.6,7.3-3.6,10.1c-2.1-2.8-3.3-6.4-3.6-10.1H62.8z M54.5,45.9
		c-1.7,3.1-2.7,6.7-3,10.3h-5.4C46.9,51.4,50.1,47.5,54.5,45.9z M46.1,60.3h5.4c0.3,3.7,1.3,7.2,3,10.3C50.1,69,46.9,65.1,46.1,60.3
		z M63.9,70.6c1.7-3,2.7-6.5,3-10.3h5.4C71.5,65.1,68.3,69,63.9,70.6z"/>
	<path class="st0" d="M72.6,92.6H45.8c-1.1,0-2.1,0.9-2.1,2.1c0,1.1,0.9,2.1,2.1,2.1h26.8c1.1,0,2.1-0.9,2.1-2.1
		C74.7,93.5,73.8,92.6,72.6,92.6z"/>
	<path class="st0" d="M93.7,17.8H40c-3.5,0-5.9,2.4-5.9,5.9v3.7c-3.2,0.3-5.8,2.9-5.8,6.1V104c0,3.4,2.9,6.2,6.4,6.2h48.8
		c3.6,0,6.4-2.8,6.4-6.2v-1.5h3.7c3.5,0,5.9-2.4,5.9-5.9V24C99.6,20.4,97.1,17.8,93.7,17.8z M85.9,104c0,1.1-1,2.1-2.3,2.1H34.8
		c-1.3,0-2.3-0.9-2.3-2.1V33.6c0-1.1,1-2.1,2.3-2.1h48.8c1.3,0,2.3,0.9,2.3,2.1V104z M95.5,96.6c0,1.2-0.6,1.8-1.8,1.8H90V33.6
		c0-3.4-2.9-6.2-6.4-6.2H38.3v-3.7c0-1.2,0.6-1.8,1.8-1.8h53.7c1.6,0,1.8,1.4,1.8,2.1V96.6z"/>
</g>
</svg>
