<?xml version="1.0" encoding="utf-8"?>
<!-- Generator: Adobe Illustrator 25.2.1, SVG Export Plug-In . SVG Version: 6.00 Build 0)  -->
<svg version="1.1" id="Capa_1" xmlns="http://www.w3.org/2000/svg" xmlns:xlink="http://www.w3.org/1999/xlink" x="0px" y="0px"
	 viewBox="0 0 128 128" style="enable-background:new 0 0 128 128;" xml:space="preserve">
<style type="text/css">
	.st0{fill:#28357D;}
</style>
<g>
	<path class="st0" d="M37.9,11.9c-4.8,0-8.6,3.9-8.6,8.6V97c0,4.8,3.9,8.6,8.6,8.6h13.3v10.5l9.1-4.9l9.1,4.9v-10.5h29.4v-4.5H69.3
		V97h-4.5v4.1v4.5v2.9l-4.6-2.5l-4.6,2.5v-2.9v-4.5V97h-4.5v4.1H37.9c-2.3,0-4.1-1.9-4.1-4.1c0-2.3,1.9-4.1,4.1-4.1h60.9v-2.2v-2.2
		V11.9H37.9z M94.2,88.4h-49V21.3h-4.5v67.1h-2.9c-1.5,0-2.9,0.4-4.1,1.1v-69c0-2.3,1.9-4.1,4.1-4.1h56.4V88.4z"/>
	<path class="st0" d="M84,34.1H55.5v14.3H84V34.1z M79.5,43.9H60v-5.3h19.6V43.9z"/>
</g>
</svg>
