<?xml version="1.0" encoding="utf-8"?>
<!-- Generator: Adobe Illustrator 25.2.1, SVG Export Plug-In . SVG Version: 6.00 Build 0)  -->
<svg version="1.1" id="Capa_1" xmlns="http://www.w3.org/2000/svg" xmlns:xlink="http://www.w3.org/1999/xlink" x="0px" y="0px"
	 viewBox="0 0 128 128" style="enable-background:new 0 0 128 128;" xml:space="preserve">
<style type="text/css">
	.st0{fill:#28357D;}
</style>
<g>
	<path class="st0" d="M115,74.4c-0.6-1.9-2.2-3.3-4.3-3.5l-11.5-1.1l-5.4-12.4c0,0,0-0.1,0-0.1c-0.9-1.8-2.7-2.9-4.7-2.9
		c-2,0-3.8,1.1-4.7,3l-5.2,12.6l-11.7,1c-2,0.3-3.6,1.6-4.2,3.5c-0.6,1.9-0.1,3.9,1.3,5.3c0.1,0.1,0.1,0.1,0.2,0.2l8.3,5.8l-2,12.8
		c-0.3,2,0.5,3.9,2.1,5.1c1.6,1.2,3.7,1.3,5.5,0.4c0.1,0,0.1-0.1,0.2-0.1l10.3-7.3l10.3,7.3c0.1,0,0.1,0.1,0.2,0.1
		c0.8,0.4,1.6,0.6,2.4,0.6c1.1,0,2.1-0.3,3.1-1c1.6-1.2,2.4-3.1,2.1-5.1l-2-12.8l8.3-5.8c0.1-0.1,0.2-0.1,0.2-0.2
		C115.2,78.3,115.7,76.3,115,74.4z M111.3,77l-9,6.3c-0.6,0.4-0.9,1.1-0.7,1.8l2.2,13.9c0.2,0.9-0.4,1.4-0.6,1.6
		c-0.2,0.2-0.8,0.5-1.6,0.2l-11.2-7.9c-0.6-0.4-1.5-0.4-2.1,0l-11.2,7.9c-0.8,0.3-1.4,0-1.6-0.2c-0.2-0.2-0.8-0.7-0.6-1.6l2.2-13.9
		c0.1-0.7-0.2-1.4-0.7-1.8L67,77c-0.5-0.6-0.4-1.3-0.3-1.5c0.1-0.3,0.4-1,1.2-1.1l12.7-1c0.7-0.1,1.3-0.5,1.5-1.1l5.6-13.5
		c0.4-0.8,1.1-0.9,1.4-0.9c0.3,0,1,0.1,1.4,0.9l5.8,13.3c0.3,0.6,0.8,1,1.5,1.1l12.5,1.2c0.9,0.1,1.2,0.8,1.3,1.1
		C111.7,75.8,111.8,76.4,111.3,77z"/>
	<path class="st0" d="M64.8,100.9H32.5c-3,0-5.4-2.4-5.4-5.4V45H101v19c0,1,0.8,1.8,1.8,1.8c1,0,1.8-0.8,1.8-1.8V32.4c0-4.9-4-9-9-9
		H32.5c-4.9,0-9,4-9,9v63.1c0,4.9,4,9,9,9h32.3c1,0,1.8-0.8,1.8-1.8C66.6,101.7,65.8,100.9,64.8,100.9z M32.5,27.1h63.1
		c3,0,5.4,2.4,5.4,5.4v9H27.1v-9C27.1,29.5,29.5,27.1,32.5,27.1z"/>
	<path class="st0" d="M52.2,54.7c0-2.2-1.8-4-4-4H37.5c-2.2,0-4,1.8-4,4v10.8c0,2.2,1.8,4,4,4h10.8c2.2,0,4-1.8,4-4V54.7z
		 M48.6,65.4c0,0.2-0.2,0.4-0.4,0.4H37.5c-0.2,0-0.4-0.2-0.4-0.4V54.7c0-0.2,0.2-0.4,0.4-0.4h10.8c0.2,0,0.4,0.2,0.4,0.4V65.4z"/>
	<path class="st0" d="M48.3,75.8H37.5c-2.2,0-4,1.8-4,3.9v10.8c0,2.2,1.8,4,4,4h10.8c2.2,0,4-1.8,4-4V79.8
		C52.2,77.6,50.5,75.8,48.3,75.8z M48.6,90.5c0,0.2-0.2,0.4-0.4,0.4H37.5c-0.2,0-0.4-0.2-0.4-0.4V79.8c0-0.2,0.2-0.3,0.4-0.3h10.8
		c0.2,0,0.4,0.2,0.4,0.3V90.5z"/>
	<path class="st0" d="M75.5,63.9c1,0,1.8-0.8,1.8-1.8v-7.4c0-2.2-1.8-4-4-4H62.6c-2.2,0-4,1.8-4,4v12.9c0,1,0.8,1.8,1.8,1.8
		s1.8-0.8,1.8-1.8V54.7c0-0.2,0.2-0.4,0.4-0.4h10.8c0.2,0,0.4,0.2,0.4,0.4v7.4C73.7,63.1,74.5,63.9,75.5,63.9z"/>
	<path class="st0" d="M64.8,90.9h-2.2c-0.2,0-0.4-0.2-0.4-0.4v-8.8c0-1-0.8-1.8-1.8-1.8s-1.8,0.8-1.8,1.8v8.8c0,2.2,1.8,4,4,4h2.2
		c1,0,1.8-0.8,1.8-1.8C66.6,91.7,65.8,90.9,64.8,90.9z"/>
</g>
</svg>
