<?xml version="1.0" encoding="utf-8"?>
<!-- Generator: Adobe Illustrator 25.2.1, SVG Export Plug-In . SVG Version: 6.00 Build 0)  -->
<svg version="1.1" id="Capa_1" xmlns="http://www.w3.org/2000/svg" xmlns:xlink="http://www.w3.org/1999/xlink" x="0px" y="0px"
	 viewBox="0 0 128 128" style="enable-background:new 0 0 128 128;" xml:space="preserve">
<style type="text/css">
	.st0{fill:#28357D;}
</style>
<g id="doctor_1_">
	<g>
		<g>
			<path class="st0" d="M70.6,71.6c-0.9,0-1.8-0.5-2.2-1.4c-0.5-1.2,0-2.6,1.2-3.1c7.5-3.2,8.7-13,9.6-20.9l0.2-1.3
				c0.5-3.9,0.7-8.3-1.2-11.8c-1.5-2.9-4.4-5.2-8.1-6.5c-3.8-1.3-8.4-1.3-12.2,0c-3.7,1.2-6.6,3.5-8.1,6.5c-1.9,3.6-1.6,8-1.2,11.8
				l0.2,1.3c0.9,7.9,2.1,17.7,9.6,20.9c1.2,0.5,1.8,1.9,1.2,3.1c-0.5,1.2-1.9,1.8-3.1,1.3c-10-4.3-11.4-16.1-12.5-24.7l-0.2-1.3
				c-0.6-4.6-0.8-9.9,1.7-14.6c2.1-4,5.9-7.1,10.8-8.8c4.8-1.6,10.5-1.6,15.3,0c4.9,1.6,8.7,4.8,10.8,8.8c2.5,4.7,2.2,10.1,1.7,14.6
				L84,46.7c-1,8.6-2.4,20.5-12.5,24.7C71.2,71.6,70.9,71.6,70.6,71.6z"/>
		</g>
		<g>
			<path class="st0" d="M23.2,107.2c-0.1,0-0.2,0-0.3,0c-1.3-0.2-2.2-1.4-2-2.7l1.1-8.1c1.1-8.1,6.5-14.9,14.1-17.8l15.1-5.8v-6.2
				c0-1.3,1.1-2.4,2.4-2.4c1.3,0,2.4,1.1,2.4,2.4v7.9c0,1-0.6,1.9-1.5,2.2l-16.7,6.3c-6,2.3-10.2,7.6-11,13.9l-1.1,8.1
				C25.4,106.3,24.3,107.2,23.2,107.2z"/>
		</g>
		<g>
			<path class="st0" d="M104.8,107.2c-1.2,0-2.2-0.9-2.4-2.1l-1.1-8.1c-0.8-6.3-5.1-11.7-11-13.9l-16.7-6.3
				c-0.9-0.4-1.5-1.2-1.5-2.2v-7.9c0-1.3,1.1-2.4,2.4-2.4s2.4,1.1,2.4,2.4v6.2L92,78.6c7.6,2.9,13,9.7,14.1,17.8l1.1,8.1
				c0.2,1.3-0.7,2.5-2,2.7C105,107.2,104.9,107.2,104.8,107.2z"/>
		</g>
		<g>
			<path class="st0" d="M75.9,44c-3.6,0-5.9-1.6-7.3-3.6c-3,2.6-8,3.6-16.4,3.6c-1.3,0-2.4-1.1-2.4-2.4s1.1-2.4,2.4-2.4
				c13.2,0,14.1-2.7,14.9-5c0.4-1.1,1.5-1.8,2.6-1.6c1.2,0.2,2,1.2,2,2.4c0,1,0.4,4.2,4.2,4.2c1.3,0,2.4,1.1,2.4,2.4
				S77.2,44,75.9,44z"/>
		</g>
		<g>
			<path class="st0" d="M64,91.4c-0.4,0-0.9-0.1-1.3-0.4c-0.5-0.3-11.7-7.4-11.7-16.5c0-1.3,1.1-2.4,2.4-2.4c1.3,0,2.4,1.1,2.4,2.4
				c0,4.6,5.1,9.4,8.2,11.6c3.1-2.3,8.2-7,8.2-11.6c0-1.3,1.1-2.4,2.4-2.4s2.4,1.1,2.4,2.4c0,9.1-11.2,16.2-11.7,16.5
				C64.9,91.3,64.4,91.4,64,91.4z"/>
		</g>
	</g>
	<g>
		<g>
			<g>
				<path class="st0" d="M45.6,88.8c-1.1,0-2.1-0.8-2.3-2c-0.1-0.3-1.3-8,5-12.7c1.1-0.8,2.5-0.6,3.3,0.5c0.8,1.1,0.6,2.5-0.5,3.3
					c-4,3-3.2,7.9-3.2,8.1c0.2,1.3-0.7,2.5-2,2.7C45.8,88.7,45.7,88.8,45.6,88.8z"/>
			</g>
			<g>
				<path class="st0" d="M54.8,107.2h-4c-1.3,0-2.4-1.1-2.4-2.4c0-1.3,1.1-2.4,2.4-2.4h1.6v-2.9c0-4.8-3.2-10.8-6.8-10.8
					c-3.6,0-6.8,6-6.8,10.8v2.9h1.6c1.3,0,2.4,1.1,2.4,2.4c0,1.3-1.1,2.4-2.4,2.4h-4c-1.3,0-2.4-1.1-2.4-2.4v-5.3
					C34,93.1,38.4,84,45.6,84s11.6,9.1,11.6,15.6v5.3C57.2,106.1,56.1,107.2,54.8,107.2z"/>
			</g>
		</g>
		<g>
			<g>
				<path class="st0" d="M82.4,94c-1.3,0-2.4-1.1-2.4-2.4V89c0.1-4-0.9-10-3-11c-1.2-0.5-1.7-1.9-1.2-3.1c0.5-1.2,1.9-1.7,3.2-1.2
					c5.8,2.6,5.8,13.3,5.8,15.4v2.6C84.8,93,83.8,94,82.4,94z"/>
			</g>
			<g>
				<path class="st0" d="M82.4,107.2c-4.9,0-9-4-9-9s4-9,9-9s9,4,9,9S87.4,107.2,82.4,107.2z M82.4,94c-2.3,0-4.2,1.9-4.2,4.2
					c0,2.3,1.9,4.2,4.2,4.2c2.3,0,4.2-1.9,4.2-4.2C86.6,95.9,84.8,94,82.4,94z"/>
			</g>
		</g>
	</g>
</g>
</svg>
