<?xml version="1.0" encoding="utf-8"?>
<!-- Generator: Adobe Illustrator 25.2.1, SVG Export Plug-In . SVG Version: 6.00 Build 0)  -->
<svg version="1.1" id="Capa_1" xmlns="http://www.w3.org/2000/svg" xmlns:xlink="http://www.w3.org/1999/xlink" x="0px" y="0px"
	 viewBox="0 0 128 128" style="enable-background:new 0 0 128 128;" xml:space="preserve">
<style type="text/css">
	.st0{fill:#28357D;}
</style>
<path class="st0" d="M72.8,37c-1.3,0-2.4,1.1-2.4,2.4V56c0,1.3,1.1,2.4,2.4,2.4s2.4-1.1,2.4-2.4V39.4C75.2,38.1,74.1,37,72.8,37z
	 M79.9,37c-1.3,0-2.4,1.1-2.4,2.4V56c0,1.3,1.1,2.4,2.4,2.4c1.3,0,2.4-1.1,2.4-2.4V39.4C82.3,38.1,81.2,37,79.9,37z M64,16.1
	c-23.7,0-43,19.3-43,43c0,14.2,6.9,26.8,17.6,34.7V105c0,3.8,3.1,6.9,6.9,6.9c3.8,0,6.9-3.1,6.9-6.9v-4.4c3.7,1,7.6,1.6,11.6,1.6
	c1.8,0,3.6-0.2,5.3-0.4v3c0,3.9,3.2,7,7,7c3.9,0,7-3.2,7-7v-7.3c14-7.1,23.6-21.6,23.6-38.4C107,35.4,87.7,16.1,64,16.1z M50.1,75.2
	c-0.6,0-1.3,0.2-1.8,0.6c-0.5,0.4-0.8,1.1-0.8,1.7V105c0,1.2-1,2.1-2.1,2.1s-2.1-1-2.1-2.1V41.8c1.1-0.1,4.1,0.5,6.8,4.2
	c4.8,6.8,5.7,23.2,5.5,29.2C54.3,75.3,52.1,75.3,50.1,75.2z M83.4,92.1V73.8l5.3-5.3c0.4-0.4,0.7-1.1,0.7-1.7V56V39.4
	c0-1.3-1.1-2.4-2.4-2.4c-1.3,0-2.4,1.1-2.4,2.4V56v9.8l-5.3,5.3c-0.4,0.4-0.7,1.1-0.7,1.7v32c0,1.3-1,2.3-2.3,2.3
	c-1.3,0-2.3-1-2.3-2.3v-32c0-0.6-0.3-1.2-0.7-1.7l-5.3-5.3V56V39.4c0-1.3-1.1-2.4-2.4-2.4s-2.4,1.1-2.4,2.4V56v10.8
	c0,0.6,0.3,1.2,0.7,1.7l5.3,5.3V97c-1.7,0.2-3.5,0.4-5.3,0.4c-4.1,0-8-0.7-11.6-1.9V80.1c5.6,0.2,7.7-0.7,7.9-3
	c0-0.2,0.9-23.6-6.3-33.8c-3.8-5.3-9.1-7-12.4-6c-1.9,0.6-3,2-3,3.8v46.6c-7.9-7-12.9-17.2-12.9-28.5c0-21.1,17.2-38.3,38.3-38.3
	s38.3,17.2,38.3,38.3C102.3,73.2,94.7,85.5,83.4,92.1z"/>
</svg>
