<?xml version="1.0" encoding="utf-8"?>
<!-- Generator: Adobe Illustrator 25.2.1, SVG Export Plug-In . SVG Version: 6.00 Build 0)  -->
<svg version="1.1" id="Capa_1" xmlns="http://www.w3.org/2000/svg" xmlns:xlink="http://www.w3.org/1999/xlink" x="0px" y="0px"
	 viewBox="0 0 128 128" style="enable-background:new 0 0 128 128;" xml:space="preserve">
<style type="text/css">
	.st0{fill:#28357D;}
</style>
<g>
	<path class="st0" d="M106.1,100C105,92,99.6,85.2,92,82.3l-15.1-5.8v-5.2c5.2-5.5,6.3-14.2,7.1-20.9l0.2-1.3
		c0.3-2.4,0.5-5.1,0.3-7.7V31.1c0-3.5-2.1-6.8-6.3-9.6c-8.4-5.7-19.8-5.7-28.2,0c-4.2,2.8-6.3,6.1-6.3,9.6v10.7
		c-0.2,2.5,0,4.9,0.3,7.2l0.2,1.3c0.8,6.7,1.9,15.4,7.1,20.9v5.2l-15.1,5.8C28.4,85.2,23,92,21.9,100l-1.1,8.1
		c-0.2,1.3,0.7,2.5,2,2.7c0.1,0,0.2,0,0.3,0c1.2,0,2.2-0.9,2.4-2.1l1.1-8.1c0.8-6.3,5.1-11.7,11-13.9l13.9-5.3
		c2.1,7.5,10.8,13,11.2,13.2c0.4,0.2,0.8,0.4,1.3,0.4c0.4,0,0.9-0.1,1.3-0.4c0.4-0.3,9.1-5.7,11.2-13.2l13.9,5.3
		c6,2.3,10.2,7.6,11,13.9l1.1,8.1c0.2,1.2,1.2,2.1,2.4,2.1c0.1,0,0.2,0,0.3,0c1.3-0.2,2.2-1.4,2-2.7L106.1,100z M48.2,31.1
		c0-1.9,1.4-3.9,4.3-5.8c6.9-4.7,16.1-4.7,23,0c2.8,1.9,4.3,3.9,4.3,5.8v11.3H48.2V31.1z M64,89.7c-3.1-2.3-8.2-7-8.2-11.6v-3.4
		c0.2,0.1,0.4,0.2,0.6,0.3c1.2,0.5,2.6,0,3.1-1.3c0.5-1.2,0-2.6-1.2-3.1c-1.2-0.5-2.3-1.3-3.2-2.1c0,0,0,0,0,0
		c-4.6-4.3-5.6-12.2-6.4-18.8l-0.2-1.3c-0.1-0.5-0.1-0.9-0.1-1.4h31.1c0,0.5-0.1,0.9-0.1,1.4l-0.2,1.3c-0.8,6.6-1.7,14.5-6.4,18.8
		c0,0,0,0,0,0c-0.9,0.9-2,1.6-3.2,2.1c-1.2,0.5-1.8,1.9-1.2,3.1c0.4,0.9,1.3,1.4,2.2,1.4c0.3,0,0.6-0.1,0.9-0.2
		c0.2-0.1,0.4-0.2,0.6-0.3v3.4C72.2,82.8,67.1,87.5,64,89.7z"/>
	<path class="st0" d="M68.9,29.8h-2.6v-2.6c0-1.3-1-2.3-2.3-2.3c-1.3,0-2.3,1-2.3,2.3v2.6h-2.6c-1.3,0-2.3,1-2.3,2.3s1,2.3,2.3,2.3
		h2.6V37c0,1.3,1,2.3,2.3,2.3c1.3,0,2.3-1,2.3-2.3v-2.6h2.6c1.3,0,2.3-1,2.3-2.3S70.1,29.8,68.9,29.8z"/>
</g>
</svg>
