<?xml version="1.0" encoding="utf-8"?>
<!-- Generator: Adobe Illustrator 25.2.1, SVG Export Plug-In . SVG Version: 6.00 Build 0)  -->
<svg version="1.1" id="Capa_1" xmlns="http://www.w3.org/2000/svg" xmlns:xlink="http://www.w3.org/1999/xlink" x="0px" y="0px"
	 viewBox="0 0 128 128" style="enable-background:new 0 0 128 128;" xml:space="preserve">
<style type="text/css">
	.st0{fill:#28357D;}
</style>
<g>
	<path class="st0" d="M65.6,28.1c1.2,0,2.2-1,2.2-2.2v-7c0-1.2-1-2.2-2.2-2.2c-1.2,0-2.2,1-2.2,2.2v7C63.4,27.1,64.4,28.1,65.6,28.1
		z"/>
	<path class="st0" d="M53.5,29.8c0.4,0.6,1.1,1,1.9,1c0.4,0,0.8-0.1,1.2-0.3c0.5-0.3,0.8-0.8,1-1.4c0.1-0.6,0-1.2-0.3-1.7l-3.8-5.9
		c-0.4-0.6-1.1-1-1.9-1c-0.4,0-0.8,0.1-1.2,0.3c-0.5,0.3-0.8,0.8-1,1.4c-0.1,0.6,0,1.2,0.3,1.7L53.5,29.8z"/>
	<path class="st0" d="M74.7,30.4c0.4,0.2,0.8,0.3,1.2,0.3c0.8,0,1.5-0.4,1.9-1l3.8-5.9c0.3-0.5,0.4-1.1,0.3-1.7
		c-0.1-0.6-0.5-1.1-1-1.4c-0.4-0.2-0.8-0.3-1.2-0.3c-0.8,0-1.5,0.4-1.9,1L74,27.4c-0.3,0.5-0.4,1.1-0.3,1.7
		C73.8,29.6,74.2,30.1,74.7,30.4z"/>
	<path class="st0" d="M52.5,61h-5v-5c0-1.2-1-2.2-2.2-2.2h-9.8c-1.2,0-2.2,1-2.2,2.2v5h-5c-1.2,0-2.2,1-2.2,2.2V73
		c0,1.2,1,2.2,2.2,2.2h5v5c0,1.2,1,2.2,2.2,2.2h9.8c1.2,0,2.2-1,2.2-2.2v-5h5c1.2,0,2.2-1,2.2-2.2v-9.8C54.8,62,53.8,61,52.5,61z
		 M50.3,70.7h-5c-1.2,0-2.2,1-2.2,2.2v5h-5.3v-5c0-1.2-1-2.2-2.2-2.2h-5v-5.3h5c1.2,0,2.2-1,2.2-2.2v-5h5.3v5c0,1.2,1,2.2,2.2,2.2h5
		V70.7z"/>
	<path class="st0" d="M115.1,73.6h-6.3L99.5,59c-0.4-0.6-1.1-1-1.9-1H81.8V44.8c0-1.2-1-2.2-2.2-2.2h-4.2v-1.8
		c0-5.4-4.4-9.8-9.8-9.8c-5.4,0-9.8,4.4-9.8,9.8v1.8H12.9c-1.2,0-2.2,1-2.2,2.2V99c0,1.2,1,2.2,2.2,2.2h7.8
		c1,5.7,6.1,10.1,12.1,10.1c6,0,11-4.3,12.1-10.1h39.8c1,5.7,6.1,10.1,12.1,10.1c6,0,11-4.3,12.1-10.1h6.3c1.2,0,2.2-1,2.2-2.2V75.8
		C117.3,74.5,116.4,73.6,115.1,73.6z M60.3,40.8c0-3,2.4-5.4,5.4-5.4c3,0,5.4,2.4,5.4,5.4v1.8H60.3V40.8z M40.6,99.1
		c0,4.3-3.5,7.8-7.8,7.8c-4.3,0-7.8-3.5-7.8-7.8c0,0,0,0,0,0s0,0,0,0c0-4.3,3.5-7.8,7.8-7.8C37.1,91.2,40.6,94.7,40.6,99.1
		C40.6,99,40.6,99,40.6,99.1C40.6,99.1,40.6,99.1,40.6,99.1z M77.4,60.2v36.7H44.9c-1-5.7-6.1-10.1-12.1-10.1c-6,0-11,4.3-12.1,10.1
		h-5.6V47.1H58c0,0,0,0,0,0c0,0,0,0,0,0h15.1c0,0,0,0,0,0s0,0,0,0h4.1V60.2z M104.6,99.1c0,4.3-3.5,7.8-7.8,7.8
		c-4.3,0-7.8-3.5-7.8-7.8c0,0,0,0,0,0s0,0,0,0c0-4.3,3.5-7.8,7.8-7.8C101.1,91.2,104.6,94.7,104.6,99.1
		C104.6,99,104.6,99,104.6,99.1C104.6,99.1,104.6,99.1,104.6,99.1z M112.9,96.8h-4.1c-1-5.7-6.1-10.1-12.1-10.1s-11,4.3-12.1,10.1
		h-2.9V62.4h14.6l9.3,14.6c0.4,0.6,1.1,1,1.9,1h5.3V96.8z"/>
	<path class="st0" d="M99,73.8H88.9v-5.7c0-1.2-1-2.2-2.2-2.2c-1.2,0-2.2,1-2.2,2.2v8c0,1.2,1,2.2,2.2,2.2H99c1.2,0,2.2-1,2.2-2.2
		C101.2,74.8,100.2,73.8,99,73.8z"/>
</g>
</svg>
