<?xml version="1.0" encoding="utf-8"?>
<!-- Generator: Adobe Illustrator 25.2.1, SVG Export Plug-In . SVG Version: 6.00 Build 0)  -->
<svg version="1.1" id="Capa_1" xmlns="http://www.w3.org/2000/svg" xmlns:xlink="http://www.w3.org/1999/xlink" x="0px" y="0px"
	 viewBox="0 0 128 128" style="enable-background:new 0 0 128 128;" xml:space="preserve">
<style type="text/css">
	.st0{fill:#28357D;}
</style>
<g>
	<path class="st0" d="M95,15H32.8c-1.3,0-2.3,1-2.3,2.3v13.8h-5.7c-1.2,0-2.3,1-2.3,2.3s1,2.3,2.3,2.3h5.7v10.8h-5.7
		c-1.2,0-2.3,1-2.3,2.3s1,2.3,2.3,2.3h5.7v10.8h-5.7c-1.2,0-2.3,1-2.3,2.3s1,2.3,2.3,2.3h5.7v10.8h-5.7c-1.2,0-2.3,1-2.3,2.3
		s1,2.3,2.3,2.3h5.7v10.8h-5.7c-1.2,0-2.3,1-2.3,2.3s1,2.3,2.3,2.3h5.7v13.8c0,1.3,1,2.3,2.3,2.3H95c5.8,0,10.5-4.7,10.5-10.5v-77
		C105.5,19.7,100.8,15,95,15z M100.8,102.5c0,3.2-2.6,5.8-5.8,5.8H35.2V96.9h5.7c1.2,0,2.3-1,2.3-2.3s-1-2.3-2.3-2.3h-5.7V81.6h5.7
		c1.2,0,2.3-1,2.3-2.3s-1-2.3-2.3-2.3h-5.7V66.3h5.7c1.2,0,2.3-1,2.3-2.3s-1-2.3-2.3-2.3h-5.7V50.9h5.7c1.2,0,2.3-1,2.3-2.3
		s-1-2.3-2.3-2.3h-5.7V35.6h5.7c1.2,0,2.3-1,2.3-2.3s-1-2.3-2.3-2.3h-5.7V19.6H95c3.2,0,5.8,2.6,5.8,5.8V102.5z"/>
	<path class="st0" d="M78.2,58.1c3-2.6,4.8-6.3,4.8-10.5c0-7.7-6.3-13.9-14-13.9s-14,6.2-14,13.9c0,4.2,1.9,8,4.8,10.5
		c-6.5,2.4-11.8,8.3-11.8,19.6v4.9c0,3.8,2.4,7.3,6,8.7c3.2,1.2,8.4,2.6,15,2.6c6.6,0,11.8-1.4,15-2.6c3.6-1.4,6-4.8,6-8.7v-4.9
		C90,66.4,84.7,60.4,78.2,58.1z M69,38.3c5.1,0,9.3,4.2,9.3,9.3s-4.2,9.3-9.3,9.3c-5.1,0-9.3-4.2-9.3-9.3S63.9,38.3,69,38.3z
		 M85.3,82.6c0,1.9-1.2,3.6-3,4.3c-2.8,1.1-7.4,2.3-13.3,2.3c-5.9,0-10.5-1.3-13.3-2.3c-1.8-0.7-3-2.4-3-4.3v-4.9
		c0-14.6,10.1-16.2,14.4-16.2h3.7c4.3,0,14.4,1.6,14.4,16.2V82.6z"/>
</g>
</svg>
